LANCE LOPEZ SALVATION FROM SUNDOWN
CD plus bonus DVD
Label MIG 
Release Date Nov 09, 2010
Format:Mp3@320 /avi
[

Born in Shreveport, Louisiana, Lance Lopez moved to Dallas, Texas when he was 12 years old, then to New Orleans, Louisiana 2 years later. 
Het has been a professional musician since the age of 14 when he began playing in local bars and around the area of New Orleans, Louisiana. 
During his high school career in New Orleans, and later in southwest Florida, Lance served in a variety of bands that played clubs at least 3 nights a week. 
At age 17, Lance and his family moved to Dallas, Texas.. Returning to Texas Lance was hired immediately by the soul legend Johnnie Taylor. 


Personell 
Lance Lopez - Guitar, Vocals 
Tony Valdez - Bass 
Cody Norman - Drums 
Rick Steph - Piano, Organ 

CD Tracklist
1 Love of Mine 4: 21
2 My Good Thang 5:09 
3 Heart Fixin Business  4.08
4 One Half Hour 4:17 
5 So Alone 4:30 
6 Salvation From Sundown 4:42 
7 Neverlove 4:41 
8 It Shoulda Been Me 4:18 
9 Stubbs 3:20 
10 Locked Outta Love 4:04 
11 Why 5:28 
12 Romeo 5:20 

Recording information: Ardent Studios, Memphis, TN; Luminous Sound, Dallas, TX.

DVD: 

WDR Rockpalast-concert from the 25th of July 2009. 
 Lance Lopez appears with Toni Valdez (bass) and Al Pahanish Jr. (drums) .

1. Stubbs 
2. Love Of Mine 
3. My Good Thang 
4. Heart Fixin' Business 
5. Neverlove 
6. El Paso Sugar 
7. One Half Hour 
8. Friend Of Mine 
9. Salvation From Sundown 
10. Locked Out Of Love 
11. Stones In My Pathway



General
Complete name  :
 C:\Users\roger\Videos\Lance Lopez Salvation from Sundown.avi
Format                           : AVI
File size                        : 790 MiB
Duration                         : 1h 16mn
Overall bit rate                 : 1 452 Kbps
Writing library                  : Boilsoft AVI tool build 1/release

Video
ID                               : 0
Format                           : MPEG-4 Visual
Format profile                   : Advanced Simple@L5
Format settings, BVOP            : Yes
Format settings, QPel            : No
Format settings, GMC             : No warppoints
Format settings, Matrix          : Default (H.263)
Codec ID                         : XVID
Duration                         : 1h 16mn
Bit rate                         : 1 249 Kbps
Width x Height           : 640 pixels x 480 pixels
Display aspect ratio             : 4:3
Frame rate                       : 29.970 fps
Color space                      : YUV
Chroma subsampling               : 4:2:0
Bit depth                        : 8 bits
Scan type                        : Progressive
Bits/(Pixel*Frame)               : 0.136
Stream size                      : 680 MiB (86%)
Writing library                  : XviD 1.1.2 (UTC 2006-11-01)

Audio
ID                               : 1
Format                        : MPEG Audio Version 1 Layer 3
Mode                             : Joint stereo
Codec ID                         : 55
Codec ID/Hint                    : MP3
Duration                         : 1h 15mn
Bit rate mode                    : Constant
Bit rate                         : 192 Kbps
Channel(s)                       : 2 channels
Sampling rate                    : 44.1 KHz
Stream size                      : 104 MiB (13%)
Alignment                        : Split accross interleaves
Interleave, duration             : 34 ms (1.01 video frame)
Interleave, preload duration     : 500 ms
Writing library                  : LAME3.97

